<svg xmlns="http://www.w3.org/2000/svg" viewBox="0 0 297 297" style="enable-background:new 0 0 297 297" xml:space="preserve"><circle style="fill:#17ab93" cx="148.5" cy="148.5" r="148.5"/><path style="fill:#bff796" d="M164.764 55.688h-37.125s-70.466 122.841-49.48 223.623C99.096 290.593 123.049 297 148.5 297c24.404 0 47.432-5.888 67.744-16.319 21.919-101.035-49.181-224.993-49.181-224.993h-2.299z"/><path style="fill:#bff796" d="M219.462 18.023C169.707 10.215 148.5 37.125 148.5 37.125l18.563 18.563c35.605-3.377 90.959 19.228 116.361 30.716-13.415-29.097-35.956-53.117-63.962-68.381zm-141.924 0C49.532 33.287 26.991 57.307 13.577 86.404 38.978 74.915 94.333 52.31 129.938 55.688L148.5 37.125s-21.207-26.91-70.962-19.102z"/><ellipse style="fill:#f3f3e9" cx="148.5" cy="46.406" rx="37.125" ry="27.844"/><g style="opacity:.6"><path style="fill:#bdc3c7" d="M250.374 40.463c6.135 16.282 9.501 33.921 9.501 52.349 0 82.014-66.486 148.5-148.5 148.5-39.439 0-75.283-15.38-101.874-40.463C30.671 257.031 84.914 297 148.5 297c82.014 0 148.5-66.486 148.5-148.5 0-42.575-17.922-80.96-46.626-108.037z"/></g></svg>