<svg xmlns="http://www.w3.org/2000/svg" viewBox="0 0 512 512" style="enable-background:new 0 0 512 512" xml:space="preserve"><path d="M461.554 74.997c-8.933-33.927-23.971-56.09-24.606-57.017L424.614 0l-72.622 85.024C318.018 74.699 282.174 73.263 256 73.263s-62.018 1.436-95.992 11.762L87.386 0 75.053 17.98c-.636.927-15.674 23.09-24.606 57.017-11.465 43.548-7.784 87.096 10.607 126.284a187.77 187.77 0 0 0-.869 18.134c0 44.977 10.322 72.655 23.391 107.695 4.388 11.764 8.923 23.927 13.627 38.165 12.107 36.644 26.729 74.414 51.543 102.418 23.446 26.46 53.182 41.041 90.541 44.308V404.392c-20.896-9.757-41.38-34.708-41.38-54.576 0-33.085 36.366-33.085 58.094-33.085s58.094 0 58.094 33.085c0 19.868-20.482 44.82-41.38 54.576V512c37.358-3.267 67.094-17.848 90.54-44.308 24.814-28.004 39.437-65.773 51.543-102.418 4.704-14.237 9.239-26.401 13.627-38.165 13.068-35.04 23.391-62.718 23.391-107.695 0-6.225-.301-12.266-.869-18.134 18.39-39.187 22.072-82.735 10.607-126.283zM205.52 247.017c-10.975 0-19.906-9.097-19.906-20.317 0-11.223 8.931-20.312 19.906-20.312 10.989 0 19.918 9.089 19.918 20.312 0 11.22-8.93 20.317-19.918 20.317zm100.81.152c-11.08 0-20.069-9.165-20.069-20.47s8.989-20.47 20.069-20.47c11.067 0 20.056 9.164 20.056 20.47 0 11.305-8.988 20.47-20.056 20.47z"/></svg>