<svg xmlns="http://www.w3.org/2000/svg" viewBox="0 0 512.001 512.001" style="enable-background:new 0 0 512.001 512.001" xml:space="preserve"><path style="fill:#aeadb3" d="M62.336 204.361c-20.375-40.298-24.819-85.483-12.851-130.672 8.979-33.905 24.07-56.018 24.708-56.943L85.748 0l79.735 92.81L62.336 204.361z"/><path style="fill:#d37b93" d="M141.684 113.258 90.04 53.146c-3.587 7.881-7.488 17.961-10.502 29.637-7.917 30.667-7.021 60.241 2.636 88.184l59.51-57.709z"/><path style="fill:#818186" d="M449.665 204.361c20.375-40.298 24.819-85.483 12.851-130.671-8.979-33.905-24.07-56.017-24.708-56.943L426.253 0l-79.735 92.81 103.147 111.551"/><path style="fill:#9d5b6e" d="m370.318 113.258 51.643-60.11c3.587 7.881 7.488 17.961 10.502 29.637 7.917 30.667 7.021 60.241-2.636 88.184l-59.509-57.711"/><path style="fill:#d8d9dd" d="M256.001 512c-45.417 0-80.561-14.658-107.438-44.815-24.94-27.981-39.663-65.8-51.858-102.499-4.758-14.319-9.345-26.547-13.782-38.373-13.167-35.099-23.567-62.823-23.567-107.819 0-30.689 6.978-57.096 20.741-78.489 12.104-18.814 29.528-33.878 51.786-44.774C172.973 75.115 222.397 72.789 256 72.789s83.027 2.326 124.116 22.442c22.259 10.896 39.681 25.96 51.786 44.774 13.763 21.392 20.741 47.8 20.741 78.489 0 44.996-10.4 72.719-23.567 107.819-4.437 11.826-9.023 24.054-13.782 38.373-12.195 36.7-26.918 74.518-51.857 102.499C336.561 497.342 301.418 512 256.001 512"/><path style="fill:#333" d="M184.887 225.811c0-11.273 9.024-20.402 20.112-20.402 11.102 0 20.124 9.13 20.124 20.402s-9.022 20.409-20.124 20.409c-11.089 0-20.112-9.137-20.112-20.409zm142.229 0c0-11.356-9.082-20.561-20.263-20.561-11.195 0-20.277 9.205-20.277 20.561 0 11.355 9.082 20.561 20.277 20.561 11.181 0 20.263-9.206 20.263-20.561"/><path style="fill:#444242" d="M240.312 511.376c5.089.412 10.315.624 15.689.624 5.374 0 10.599-.212 15.689-.624V403.575h-31.377l-.001 107.801"/><path style="fill:#444242" d="M256.001 415.799c-19.589 0-37.144-15.455-43.783-22.101-6.662-6.669-22.157-24.326-22.157-44.22 0-16.438 7.848-28.435 22.697-34.691 9.836-4.145 22.365-5.835 43.243-5.835s33.407 1.69 43.243 5.835c14.849 6.257 22.697 18.253 22.697 34.691 0 19.894-15.495 37.551-22.156 44.22-6.64 6.646-24.196 22.101-43.784 22.101"/><path style="fill:#bdbdbf" d="M452.645 218.335v.16-.16m0-.146v.046-.046M462.949 75.35v.001-.001m-.034-.131.001.006-.001-.006m-.033-.129.002.007-.002-.007m-.103-.397.006.025-.006-.025m-.034-.135.008.033a.318.318 0 0 1-.008-.033m-.034-.129.008.032-.008-.032m-.033-.127.008.031-.008-.031m-.11-.417.017.064-.017-.064M256.46 72.791h.013-.013m-.459 0h.377-.377M426.253 0 353.41 84.787 426.253 0l11.554 16.747c.638.925 15.729 23.038 24.708 56.943.012.044.022.085.035.129a4.854 4.854 0 0 0-.035-.129c-8.979-33.905-24.07-56.017-24.708-56.943L426.253 0"/><path style="fill:#a0a1a5" d="M306.852 246.372c-11.195 0-20.277-9.205-20.277-20.561s9.082-20.561 20.277-20.561c11.182 0 20.263 9.205 20.263 20.561.001 11.355-9.081 20.561-20.263 20.561M256.001 72.791v236.162c20.878 0 33.407 1.69 43.243 5.835 14.849 6.257 22.697 18.253 22.697 34.692 0 19.894-15.495 37.551-22.156 44.22-4.791 4.797-15.27 14.181-28.095 19.033v98.644c-5.05.409-10.232.621-15.561.624 45.357-.027 80.458-14.687 107.311-44.815 24.94-27.981 39.662-65.8 51.857-102.499 4.758-14.319 9.345-26.547 13.782-38.373 13.167-35.099 23.567-62.823 23.567-107.819v-.307c-.01-6.207-.321-12.23-.902-18.08a.44.44 0 0 1 .015-.031c-1.982-19.966-7.277-37.818-15.821-53.309a116.473 116.473 0 0 0-4.033-6.762c-11.376-17.683-27.453-32.054-47.826-42.765a154.332 154.332 0 0 0-3.96-2.009c-8.61-4.215-17.587-7.65-26.707-10.444l-.006.007c-34.197-10.48-70.413-11.987-96.931-12.005h-.096l-.378.001"/><path style="fill:#323132" d="M299.243 314.787c-9.836-4.145-22.365-5.835-43.243-5.835V512h.128a193.988 193.988 0 0 0 15.561-.624v-98.644c12.825-4.852 23.304-14.238 28.095-19.033 6.662-6.669 22.156-24.326 22.156-44.22 0-16.439-7.847-28.434-22.697-34.692z"/></svg>