<?xml version="1.0" encoding="iso-8859-1"?>
<!-- Generator: Adobe Illustrator 18.0.0, SVG Export Plug-In . SVG Version: 6.00 Build 0)  -->
<!DOCTYPE svg PUBLIC "-//W3C//DTD SVG 1.1//EN" "http://www.w3.org/Graphics/SVG/1.1/DTD/svg11.dtd">
<svg version="1.1" id="Capa_1" xmlns="http://www.w3.org/2000/svg" xmlns:xlink="http://www.w3.org/1999/xlink" x="0px" y="0px"
	 viewBox="0 0 297 297" style="enable-background:new 0 0 297 297;" xml:space="preserve">
<g>
	<g>
		<g>
			<circle style="fill:#17AB93;" cx="148.5" cy="148.5" r="148.5"/>
		</g>
	</g>
	<g>
		<g>
			<path style="fill:#BFF796;" d="M164.764,55.688h-34.827h-2.298c0,0-70.466,122.841-49.48,223.623
				C99.096,290.593,123.049,297,148.5,297c24.404,0,47.432-5.888,67.744-16.319c21.919-101.035-49.181-224.993-49.181-224.993
				H164.764z"/>
		</g>
	</g>
	<g>
		<g>
			<path style="fill:#BFF796;" d="M219.462,18.023C169.707,10.215,148.5,37.125,148.5,37.125l18.563,18.563
				c35.605-3.377,90.959,19.228,116.361,30.716C270.009,57.307,247.468,33.287,219.462,18.023z"/>
		</g>
	</g>
	<g>
		<g>
			<path style="fill:#BFF796;" d="M77.538,18.023C49.532,33.287,26.991,57.307,13.577,86.404
				C38.978,74.915,94.333,52.31,129.938,55.688L148.5,37.125C148.5,37.125,127.293,10.215,77.538,18.023z"/>
		</g>
	</g>
	<g>
		<g>
			<ellipse style="fill:#F3F3E9;" cx="148.5" cy="46.406" rx="37.125" ry="27.844"/>
		</g>
	</g>
	<g style="opacity:0.6;">
		<path style="fill:#BDC3C7;" d="M250.374,40.463c6.135,16.282,9.501,33.921,9.501,52.349c0,82.014-66.486,148.5-148.5,148.5
			c-39.439,0-75.283-15.38-101.874-40.463C30.671,257.031,84.914,297,148.5,297c82.014,0,148.5-66.486,148.5-148.5
			C297,105.925,279.078,67.54,250.374,40.463z"/>
	</g>
</g>
<g>
</g>
<g>
</g>
<g>
</g>
<g>
</g>
<g>
</g>
<g>
</g>
<g>
</g>
<g>
</g>
<g>
</g>
<g>
</g>
<g>
</g>
<g>
</g>
<g>
</g>
<g>
</g>
<g>
</g>
</svg>
